<?xml version="1.0" standalone="no"?>
<!DOCTYPE svg PUBLIC "-//W3C//DTD SVG 20010904//EN"
 "http://www.w3.org/TR/2001/REC-SVG-20010904/DTD/svg10.dtd">
<svg version="1.0" xmlns="http://www.w3.org/2000/svg"
 width="512.000000pt" height="512.000000pt" viewBox="0 0 512.000000 512.000000"
 preserveAspectRatio="xMidYMid meet">

<g transform="translate(0.000000,512.000000) scale(0.100000,-0.100000)"
fill="#000000" stroke="none">
<path d="M1500 5110 c-311 -11 -443 -25 -589 -60 -239 -59 -382 -132 -524
-269 -166 -160 -239 -284 -303 -517 -41 -151 -54 -247 -66 -484 -16 -316 -17
-1645 -1 -1661 6 -6 9 -18 6 -25 -9 -25 3 -15 37 31 20 26 44 46 60 50 18 4
27 12 26 23 0 10 6 17 16 17 16 0 58 37 58 51 0 4 8 13 18 21 11 10 12 12 2 8
-8 -4 -6 1 4 9 11 9 28 16 37 16 10 0 26 12 37 27 11 16 24 25 28 20 4 -4 2
-13 -4 -19 -7 -7 -12 -17 -12 -22 0 -6 11 6 25 27 14 20 30 37 36 37 6 0 8 4
5 8 -3 5 1 9 9 9 8 0 12 -4 9 -9 -4 -5 3 -4 15 4 12 7 21 15 21 19 0 14 44 50
56 45 7 -3 16 0 20 6 4 7 3 8 -4 4 -7 -4 -12 -5 -12 -2 0 11 59 33 68 24 5 -5
14 -2 23 8 8 10 9 15 4 12 -6 -4 -17 -2 -25 4 -13 8 -13 9 0 5 23 -7 60 10 62
30 2 10 5 -108 8 -262 4 -228 6 -176 8 285 3 780 14 939 79 1144 103 328 347
566 678 661 210 60 200 60 1150 60 776 0 880 -2 965 -17 220 -40 380 -104 519
-208 228 -172 358 -422 403 -771 19 -150 19 -1659 0 -1808 -27 -208 -85 -381
-174 -519 -69 -105 -213 -245 -319 -307 -99 -58 -267 -118 -394 -140 -120 -21
-441 -34 -880 -37 l-360 -3 270 -5 c149 -3 249 -7 224 -8 -39 -2 -47 -6 -58
-29 -10 -26 -10 -27 4 -9 14 19 15 19 15 -8 0 -15 -5 -37 -11 -49 -10 -22 -10
-22 7 -2 16 19 16 18 11 -30 -4 -36 -3 -44 4 -30 7 14 8 3 5 -40 -3 -42 -1
-54 5 -40 6 13 8 -8 5 -65 -2 -53 -1 -72 4 -50 5 23 8 -15 9 -107 1 -118 3
-141 15 -137 8 3 17 1 21 -5 8 -14 623 -14 916 -1 243 11 373 30 527 76 294
89 504 256 638 508 77 145 131 335 153 536 22 202 34 943 28 1715 -9 1022 -16
1157 -78 1393 -56 215 -127 347 -259 486 -155 162 -285 238 -516 302 -142 38
-244 53 -439 65 -229 13 -2000 20 -2325 9z"/>
<path d="M1735 4090 c-298 -22 -512 -146 -619 -359 -88 -174 -97 -252 -100
-916 -2 -302 0 -476 3 -385 4 91 8 144 9 118 1 -36 6 -48 18 -48 8 0 13 -4 10
-9 -4 -5 4 -7 16 -3 13 3 19 1 15 -5 -5 -7 1 -9 15 -5 13 3 19 1 15 -5 -5 -7
1 -9 15 -5 13 3 19 1 15 -5 -5 -7 1 -9 15 -5 14 3 19 1 14 -6 -5 -8 -2 -10 8
-6 9 3 16 1 16 -5 0 -6 7 -8 17 -4 12 5 14 3 8 -7 -5 -9 -4 -11 4 -6 15 9 53
-3 46 -15 -3 -5 1 -6 9 -3 9 3 16 1 16 -6 0 -6 4 -9 9 -6 13 8 42 -4 35 -15
-3 -5 2 -6 10 -3 9 3 16 1 16 -6 0 -6 5 -8 10 -5 6 3 10 1 10 -5 0 -6 5 -8 10
-5 6 3 10 1 10 -5 0 -6 5 -8 10 -5 6 3 10 1 10 -5 0 -6 5 -8 10 -5 6 3 10 1
10 -5 0 -6 5 -8 10 -5 6 3 10 1 10 -5 0 -6 5 -8 10 -5 6 3 10 1 10 -6 0 -7 3
-9 7 -6 3 4 12 -1 20 -11 8 -9 11 -11 8 -4 -6 11 -3 12 14 3 23 -13 27 -27 9
-33 -7 -3 -5 -7 6 -11 9 -4 15 -3 11 2 -3 5 -1 12 5 16 5 3 10 2 10 -3 0 -6 8
-8 18 -6 13 4 21 -7 35 -46 10 -29 20 -50 23 -47 2 2 -3 21 -11 41 -37 88 -58
209 -59 336 0 174 29 299 104 450 202 404 668 618 1110 510 100 -25 248 -93
334 -154 75 -53 198 -181 249 -259 165 -249 206 -575 109 -857 -86 -247 -271
-454 -508 -567 -152 -72 -222 -87 -419 -87 -169 -1 -222 7 -340 50 -11 4 -17
4 -13 -1 4 -4 43 -18 85 -31 43 -13 69 -23 58 -24 -19 -1 -19 -1 -2 -11 14 -8
15 -14 7 -24 -9 -10 -5 -23 16 -54 28 -43 37 -52 28 -26 -5 11 -2 13 10 9 9
-4 14 -9 12 -12 -3 -3 2 -11 12 -19 10 -9 11 -12 2 -7 -8 4 -3 -4 13 -19 28
-27 36 -43 15 -32 -7 4 -5 0 4 -8 10 -8 15 -17 11 -20 -3 -4 -1 -7 5 -7 14 0
44 -55 35 -64 -4 -3 -1 -6 6 -6 7 0 9 -4 6 -10 -3 -5 -1 -10 5 -10 6 0 8 -4 5
-10 -3 -5 -1 -10 5 -10 6 0 8 -4 5 -10 -3 -5 -1 -10 5 -10 6 0 8 -4 5 -10 -3
-5 -1 -10 5 -10 6 0 8 -4 5 -10 -3 -5 -1 -10 5 -10 7 0 9 -7 6 -16 -3 -8 -2
-13 3 -10 10 7 33 -42 26 -55 -4 -5 -1 -9 5 -9 7 0 9 -7 6 -16 -4 -10 -2 -13
6 -8 7 5 9 2 5 -9 -3 -9 1 -18 11 -23 12 -6 -2 -10 -43 -14 -104 -11 656 -11
788 0 424 35 647 237 708 645 20 128 20 1658 1 1789 -40 271 -158 456 -354
555 -105 52 -211 79 -363 91 -139 11 -1501 11 -1650 0z m1912 -306 c49 -10
110 -61 137 -116 87 -173 -67 -373 -253 -328 -170 41 -238 245 -124 371 41 45
81 69 133 79 34 7 51 6 107 -6z m-2060 -1426 c-3 -8 -6 -5 -6 6 -1 11 2 17 5
13 3 -3 4 -12 1 -19z m826 -795 c-7 -2 -19 -2 -25 0 -7 3 -2 5 12 5 14 0 19
-2 13 -5z m85 -10 c-10 -2 -26 -2 -35 0 -10 3 -2 5 17 5 19 0 27 -2 18 -5z
m-114 -44 c-3 -5 2 -12 10 -15 9 -3 13 -11 10 -16 -4 -6 -14 -1 -25 13 -23 29
-24 40 -4 33 8 -4 12 -10 9 -15z"/>
<path d="M2430 3164 c-89 -19 -213 -82 -282 -144 -75 -67 -148 -178 -179 -271
-20 -62 -24 -94 -24 -199 0 -105 4 -137 24 -199 98 -299 416 -481 726 -416
229 48 420 231 480 460 21 77 21 232 0 310 -45 174 -167 326 -325 404 -138 68
-277 86 -420 55z"/>
<path d="M1660 2146 c0 -11 30 -66 36 -66 2 0 -3 15 -12 33 -19 36 -24 44 -24
33z"/>
<path d="M1710 2050 c6 -11 13 -20 16 -20 2 0 0 9 -6 20 -6 11 -13 20 -16 20
-2 0 0 -9 6 -20z"/>
<path d="M1770 1960 c11 -16 26 -33 32 -36 7 -4 -1 9 -16 29 -34 44 -46 50
-16 7z"/>
<path d="M1865 1850 c27 -27 51 -50 54 -50 3 0 -17 23 -44 50 -27 28 -51 50
-54 50 -3 0 17 -22 44 -50z"/>
<path d="M1945 1780 c10 -11 20 -20 23 -20 3 0 -3 9 -13 20 -10 11 -20 20 -23
20 -3 0 3 -9 13 -20z"/>
<path d="M1980 1756 c0 -2 8 -10 18 -17 15 -13 16 -12 3 4 -13 16 -21 21 -21
13z"/>
<path d="M2035 1714 c24 -19 156 -87 160 -82 2 2 -38 24 -88 50 -51 26 -83 41
-72 32z"/>
<path d="M2437 1383 c3 -7 6 -13 8 -13 2 0 5 6 8 13 3 8 -1 14 -8 14 -7 0 -11
-6 -8 -14z"/>
</g>
</svg>
